<svg xmlns="http://www.w3.org/2000/svg" viewBox="0 0 411 139" >
	<g fill="#050505">
		<path class="st0" d="M195.8,54c0-2-1.7-3.7-3.7-3.7h-32.9v11h32.9c2,0,3.7-1.6,3.7-3.7V54z M203.1,54v3.7c0,6.1-5,11-11,11h-32.9v11
			H152V43h40.2C198.2,43,203.1,47.9,203.1,54z"/>
		<path class="st0" d="M221.3,72.2h29.2c2.1,0,3.7-1.6,3.7-3.6V54c0-2-1.6-3.7-3.7-3.7h-29.2c-2,0-3.7,1.7-3.7,3.7v14.6
			C217.6,70.5,219.3,72.2,221.3,72.2z M250.5,79.5h-29.2c-6.1,0-11-5-11-11V54c0-6.1,4.9-11,11-11h29.2c6.1,0,11,4.9,11,11v14.6
			C261.4,74.6,256.6,79.5,250.5,79.5z"/>
		<path class="st0" d="M317.4,79.5c-2.5,0-4.6-1.4-5.6-3.4l-12.5-24.9l-12.5,24.9c-1,2-3.1,3.4-5.6,3.4c-2.9,0-5.4-2-6.1-4.7L267.8,43
			h7.5l6.4,27.2l11.7-23.5c1.1-2.2,3.3-3.7,5.9-3.7c2.6,0,4.8,1.5,5.9,3.7L317,70.2l6.4-27.2h7.5l-7.5,31.8
			C322.7,77.5,320.3,79.5,317.4,79.5z"/>
		<path class="st0" d="M340.8,79.5h7.3V43h-7.3V79.5z"/>
		<path class="st0" d="M402.9,43h7.4v30.2c-0.1,3.5-2.9,6.4-6.4,6.4c-1.4,0-2.8-0.5-3.9-1.4l-33.6-26.8v28.2H359V49.4
			c0-3.5,2.9-6.4,6.4-6.4c1.4,0,2.8,0.5,3.9,1.4l33.5,26.8V43z"/>
	</g>
	<g fill="#00bf91">
		<path class="st1" d="M105.4,37.4c0-4.9-1-9.8-2.8-14.3c-1.9-4.5-4.6-8.7-8.1-12.1C91,7.5,86.9,4.7,82.4,2.8C77.8,1,73,0,68.1,0H37.4
			C27.5,0,18,3.9,11,11C4,18,0.1,27.5,0.1,37.4v3.7H0V139h7.9c6.7,0,13.2-2.7,17.9-7.4c4.8-4.8,7.4-11.2,7.4-18V36.7
			c0-1.8,1.4-3.4,3.2-3.4l0,0h31.6c0.5,0,1.1,0.1,1.6,0.3c0.5,0.2,1,0.5,1.3,0.9s0.7,0.8,0.9,1.3c0.2,0.5,0.3,1,0.3,1.6v34.3
			c0,1.5-1.2,2.7-2.7,2.7l0,0h-1.2H68h-0.8c-3.3,0-6.6,0.7-9.7,1.9c-3.1,1.3-5.9,3.1-8.2,5.5c-2.4,2.4-4.2,5.2-5.5,8.2
			c-1.3,3.1-1.9,6.4-1.9,9.7v7.9H68c9.9,0,19.4-3.9,26.4-11c7-7,10.9-16.5,10.9-26.5v-2.4h0.1V37.4z"/>
	</g>
</svg>
